<svg xmlns="http://www.w3.org/2000/svg" viewBox="0 0 448 512" width="64" height="64">
  <path fill="#c248d2" d="M160.5 400c-7.7 0-15.3-3.7-20-10.5l-112-160c-7.7-11-7.7-25.9 0-36.9l112-160c7.7-11 22.7-13.7 33.7-6s13.7 22.7 6 33.7L62.6 256l105.6 151.7c7.7 11 5 26-6 33.7-4.3 3-9.2 4.6-14.3 4.6zm127-368c13.3 0 24 10.7 24 24 0 2.4-.4 4.8-1.1 7.1l-96 320c-3.7 12.8-17.3 20.1-30.1 16.4s-20.1-17.3-16.4-30.1l96-320c3.7-12.8 17.3-20.1 30.1-16.4zM287.5 400c-5.1 0-10-1.6-14.3-4.6-11-7.7-13.7-22.7-6-33.7L372.7 256 267.1 104.3c-7.7-11-5-26 6-33.7s26-5 33.7 6l112 160c7.7 11 7.7 25.9 0 36.9l-112 160c-4.7 6.8-12.3 10.5-20 10.5z"/>
</svg> 